<?xml version="1.0" encoding="UTF-8"?><svg id="Layer_1" xmlns="http://www.w3.org/2000/svg" viewBox="0 0 163.81 47.88"><defs><style>.cls-1{stroke:#fff;stroke-miterlimit:10;}.cls-1,.cls-2{fill:#fff;}.cls-2{stroke-width:0px;}</style></defs><path class="cls-1" d="m19.79,38.26l-1.48,4.48H2.84v-.68l6.91-6.7c3.56-3.45,5.34-6.45,5.34-8.98,0-1.48-.5-2.77-1.49-3.87s-2.22-1.64-3.69-1.64c-1.25,0-2.32.37-3.21,1.11s-1.46,1.73-1.71,2.96h-1.05c.22-2.02,1-3.63,2.34-4.84s3.03-1.82,5.06-1.82,3.56.62,4.88,1.85c1.36,1.28,2.04,2.88,2.04,4.8,0,2.69-1.64,5.55-4.92,8.6l-6.75,6.28h10.12c1.09,0,1.8-.52,2.13-1.57h.94Z"/><path class="cls-1" d="m41.68,30.27c0,4-.91,7.16-2.74,9.47-1.59,2-3.53,3-5.81,3s-4.31-1.05-5.95-3.16c-1.8-2.31-2.7-5.36-2.7-9.14,0-4.16.95-7.38,2.86-9.66,1.61-1.94,3.54-2.91,5.79-2.91,2.12,0,3.98.88,5.55,2.65,2,2.23,3,5.48,3,9.75Zm-3.63-.68c0-3.7-.53-6.47-1.59-8.3-.84-1.47-1.93-2.2-3.26-2.2-1.72,0-3.02,1.11-3.91,3.33-.81,2-1.22,4.8-1.22,8.39,0,2.39.28,4.54.84,6.45.84,2.84,2.18,4.27,4.01,4.27,3.42,0,5.13-3.98,5.13-11.93Z"/><path class="cls-1" d="m63.31,38.26l-1.48,4.48h-15.47v-.68l6.91-6.7c3.56-3.45,5.34-6.45,5.34-8.98,0-1.48-.5-2.77-1.49-3.87s-2.22-1.64-3.69-1.64c-1.25,0-2.32.37-3.21,1.11s-1.46,1.73-1.71,2.96h-1.05c.22-2.02,1-3.63,2.34-4.84s3.03-1.82,5.06-1.82,3.56.62,4.88,1.85c1.36,1.28,2.04,2.88,2.04,4.8,0,2.69-1.64,5.55-4.92,8.6l-6.75,6.28h10.12c1.09,0,1.8-.52,2.13-1.57h.94Z"/><path class="cls-1" d="m82.25,34.87c0,2.5-.93,4.52-2.79,6.07-1.75,1.44-3.86,2.16-6.33,2.16-1.12,0-2.16-.16-3.12-.47-1.34-.45-2.02-1.12-2.02-2.02,0-.84.42-1.27,1.27-1.27.53,0,1.39.38,2.57,1.14s2.25,1.14,3.2,1.14c1.3,0,2.37-.46,3.21-1.39s1.27-2.05,1.27-3.36c0-1.92-.79-3.41-2.37-4.45-1.33-.88-3.02-1.36-5.09-1.45l.12-1.01c1.58-.16,2.93-.7,4.05-1.64,1.23-1.05,1.85-2.33,1.85-3.84,0-.84-.31-1.64-.94-2.39-.78-.91-1.84-1.36-3.16-1.36-2.02,0-3.41.91-4.17,2.74l-.84-.42c1.02-3.27,3.12-4.88,6.33-4.85,1.64,0,3,.47,4.08,1.41,1.16,1,1.73,2.3,1.73,3.91,0,2.25-1.2,3.96-3.59,5.13,3.16,1.09,4.73,3.17,4.73,6.23Z"/><path class="cls-2" d="m83.62,4.25h4.2v2.16h-1.66v8.48h1.66v2.16h-4.2V4.25Z"/><path class="cls-2" d="m89,17.04V7.02h2.6v1.07c.36-.45.69-.76.99-.92.41-.21.85-.32,1.35-.32.97,0,1.72.37,2.25,1.11s.8,1.66.8,2.75c0,1.21-.29,2.13-.87,2.77-.58.63-1.31.95-2.19.95-.43,0-.82-.07-1.17-.22s-.67-.36-.95-.65v3.47h-2.81Zm2.79-6.37c0,.57.12,1,.36,1.28s.55.42.92.42c.32,0,.59-.13.81-.4.22-.27.33-.72.33-1.36,0-.59-.11-1.02-.34-1.3-.23-.28-.51-.41-.83-.41-.36,0-.65.14-.89.42s-.36.73-.36,1.35Z"/><path class="cls-2" d="m98.35,7.02h2.6v1.19c.25-.51.51-.87.78-1.06.27-.19.6-.29.99-.29s.86.13,1.35.38l-.86,1.98c-.33-.14-.59-.21-.78-.21-.36,0-.65.15-.85.45-.29.42-.43,1.22-.43,2.38v2.43h-2.8v-7.26Z"/><path class="cls-2" d="m104.42,10.67c0-1.11.37-2.02,1.12-2.74.75-.72,1.76-1.08,3.03-1.08,1.45,0,2.55.42,3.29,1.26.6.68.9,1.52.9,2.51,0,1.12-.37,2.03-1.11,2.74-.74.71-1.76,1.07-3.07,1.07-1.17,0-2.11-.3-2.83-.89-.88-.73-1.33-1.7-1.33-2.88Zm2.79,0c0,.65.13,1.13.39,1.44s.59.46.99.46.73-.15.99-.46.39-.79.39-1.47c0-.63-.13-1.1-.39-1.41-.26-.31-.58-.46-.96-.46-.41,0-.74.16-1,.47-.26.31-.4.79-.4,1.42Z"/><path class="cls-2" d="m114.21,7.02h2.79v7.04c0,.9-.06,1.53-.19,1.91s-.37.68-.72.91-.85.35-1.5.35c-.54,0-1.21-.08-2-.24l.42-2.02c.22.05.39.07.49.07.24,0,.42-.08.54-.24.12-.16.18-.48.18-.97v-6.8Zm0-2.76h2.79v1.91h-2.79v-1.91Z"/><path class="cls-2" d="m126.82,11.34h-5.58c.05.45.17.78.36,1,.27.31.62.47,1.05.47.27,0,.53-.07.78-.21.15-.09.31-.24.49-.46l2.74.25c-.42.73-.93,1.25-1.52,1.57-.59.32-1.44.47-2.55.47-.96,0-1.72-.14-2.27-.41-.55-.27-1.01-.7-1.37-1.29-.36-.59-.54-1.28-.54-2.08,0-1.13.36-2.05,1.09-2.75s1.73-1.05,3.01-1.05c1.04,0,1.86.16,2.46.47s1.06.77,1.37,1.37.47,1.37.47,2.33v.31Zm-2.83-1.33c-.05-.54-.2-.92-.43-1.16s-.54-.35-.93-.35c-.44,0-.8.18-1.06.53-.17.22-.28.54-.32.98h2.74Z"/><path class="cls-2" d="m128.1,4.25h2.84v5.17l2.08-2.41h3.42l-2.6,2.54,2.75,4.72h-3.13l-1.47-2.91-1.05,1.02v1.89h-2.84V4.25Z"/><path class="cls-2" d="m140.79,4.25v2.76h1.53v2.04h-1.53v2.57c0,.31.03.51.09.61.09.16.25.23.48.23.21,0,.49-.06.86-.18l.21,1.92c-.69.15-1.33.23-1.93.23-.69,0-1.2-.09-1.53-.27-.33-.18-.57-.45-.73-.81-.16-.36-.24-.95-.24-1.76v-2.55h-1.03v-2.04h1.03v-1.33l2.79-1.43Z"/><path class="cls-2" d="m151.71,11.34h-5.58c.05.45.17.78.36,1,.27.31.62.47,1.05.47.27,0,.53-.07.78-.21.15-.09.31-.24.49-.46l2.74.25c-.42.73-.93,1.25-1.52,1.57-.59.32-1.44.47-2.55.47-.96,0-1.72-.14-2.27-.41-.55-.27-1.01-.7-1.37-1.29-.36-.59-.54-1.28-.54-2.08,0-1.13.36-2.05,1.09-2.75s1.73-1.05,3.01-1.05c1.04,0,1.86.16,2.46.47s1.06.77,1.37,1.37.47,1.37.47,2.33v.31Zm-2.83-1.33c-.05-.54-.2-.92-.43-1.16s-.54-.35-.93-.35c-.44,0-.8.18-1.06.53-.17.22-.28.54-.32.98h2.74Z"/><path class="cls-2" d="m153.02,7.02h2.6v1.19c.25-.51.51-.87.78-1.06.27-.19.6-.29.99-.29s.86.13,1.35.38l-.86,1.98c-.33-.14-.59-.21-.78-.21-.36,0-.65.15-.85.45-.29.42-.43,1.22-.43,2.38v2.43h-2.8v-7.26Z"/><path class="cls-2" d="m162.89,17.06h-4.2v-2.16h1.66V6.41h-1.66v-2.16h4.2v12.8Z"/></svg>