<?xml version="1.0" encoding="UTF-8"?><svg id="Layer_1" xmlns="http://www.w3.org/2000/svg" viewBox="0 0 620.13 308.59"><defs><style>.cls-1{stroke:#fff;stroke-miterlimit:10;}.cls-1,.cls-2{fill:#fff;}.cls-2{stroke-width:0px;}</style></defs><path class="cls-1" d="m60.78,195.23l-4.61,13.99H7.82v-2.12l21.61-20.95c11.13-10.79,16.7-20.14,16.7-28.05,0-4.64-1.55-8.67-4.65-12.08-3.1-3.42-6.95-5.13-11.54-5.13-3.91,0-7.25,1.16-10.03,3.48s-4.57,5.41-5.35,9.26h-3.3c.68-6.3,3.12-11.34,7.32-15.12,4.2-3.78,9.47-5.68,15.82-5.68s11.13,1.93,15.23,5.79c4.25,4,6.37,9.01,6.37,15.01,0,8.4-5.13,17.36-15.38,26.88l-21.09,19.63h31.64c3.42,0,5.64-1.64,6.67-4.91h2.93Z"/><path class="cls-1" d="m129.19,170.25c0,12.5-2.86,22.36-8.57,29.59-4.98,6.25-11.04,9.38-18.16,9.38s-13.48-3.3-18.6-9.89c-5.62-7.23-8.42-16.75-8.42-28.56,0-12.99,2.98-23.05,8.94-30.18,5.03-6.05,11.06-9.08,18.09-9.08,6.64,0,12.43,2.76,17.36,8.28,6.25,6.98,9.38,17.14,9.38,30.47Zm-11.35-2.12c0-11.57-1.66-20.21-4.98-25.93-2.64-4.59-6.03-6.88-10.18-6.88-5.37,0-9.45,3.47-12.23,10.4-2.54,6.25-3.81,14.99-3.81,26.22,0,7.47.88,14.18,2.64,20.14,2.64,8.89,6.81,13.33,12.52,13.33,10.69,0,16.04-12.43,16.04-37.28Z"/><path class="cls-1" d="m196.79,195.23l-4.61,13.99h-48.34v-2.12l21.61-20.95c11.13-10.79,16.7-20.14,16.7-28.05,0-4.64-1.55-8.67-4.65-12.08-3.1-3.42-6.95-5.13-11.54-5.13-3.91,0-7.25,1.16-10.03,3.48s-4.57,5.41-5.35,9.26h-3.3c.68-6.3,3.12-11.34,7.32-15.12,4.2-3.78,9.47-5.68,15.82-5.68s11.13,1.93,15.23,5.79c4.25,4,6.37,9.01,6.37,15.01,0,8.4-5.13,17.36-15.38,26.88l-21.09,19.63h31.64c3.42,0,5.64-1.64,6.67-4.91h2.93Z"/><path class="cls-1" d="m255.97,184.61c0,7.81-2.91,14.14-8.72,18.97-5.47,4.49-12.06,6.74-19.78,6.74-3.52,0-6.76-.49-9.74-1.46-4.2-1.42-6.3-3.52-6.3-6.3,0-2.64,1.32-3.96,3.96-3.96,1.66,0,4.33,1.18,8.02,3.55,3.69,2.37,7.02,3.55,10,3.55,4.05,0,7.4-1.45,10.03-4.36s3.96-6.41,3.96-10.51c0-6.01-2.47-10.64-7.4-13.92-4.15-2.73-9.45-4.25-15.89-4.54l.37-3.15c4.93-.49,9.16-2.2,12.67-5.13,3.86-3.27,5.79-7.28,5.79-12.01,0-2.64-.98-5.13-2.93-7.47-2.44-2.83-5.74-4.25-9.89-4.25-6.3,0-10.65,2.86-13.04,8.57l-2.64-1.32c3.17-10.21,9.77-15.26,19.78-15.16,5.13,0,9.38,1.46,12.74,4.39,3.61,3.12,5.42,7.2,5.42,12.23,0,7.03-3.74,12.38-11.21,16.04,9.86,3.42,14.79,9.91,14.79,19.48Z"/><path class="cls-2" d="m276.45,88.87h18.02v9.26h-7.12v36.36h7.12v9.26h-18.02v-54.87Z"/><path class="cls-2" d="m299.5,143.66v-42.95h11.16v4.6c1.54-1.93,2.96-3.24,4.25-3.93,1.74-.92,3.66-1.38,5.77-1.38,4.16,0,7.38,1.59,9.65,4.78s3.41,7.12,3.41,11.81c0,5.18-1.24,9.13-3.72,11.85s-5.62,4.09-9.4,4.09c-1.84,0-3.51-.31-5.02-.94s-2.87-1.55-4.06-2.78v14.85h-12.04Zm11.95-27.3c0,2.46.52,4.29,1.55,5.48s2.34,1.79,3.93,1.79c1.39,0,2.55-.57,3.49-1.71s1.41-3.08,1.41-5.82c0-2.52-.49-4.37-1.46-5.55s-2.17-1.77-3.57-1.77c-1.52,0-2.79.6-3.81,1.79s-1.52,3.12-1.52,5.8Z"/><path class="cls-2" d="m339.58,100.71h11.16v5.1c1.07-2.21,2.18-3.73,3.33-4.56s2.55-1.25,4.23-1.25,3.68.55,5.77,1.64l-3.69,8.5c-1.41-.59-2.52-.88-3.34-.88-1.56,0-2.77.64-3.63,1.93-1.23,1.82-1.85,5.21-1.85,10.2v10.43h-11.98v-31.11Z"/><path class="cls-2" d="m365.6,116.35c0-4.75,1.6-8.66,4.8-11.73s7.53-4.61,12.98-4.61c6.23,0,10.94,1.81,14.12,5.42,2.56,2.91,3.84,6.49,3.84,10.75,0,4.79-1.59,8.71-4.76,11.76s-7.56,4.58-13.17,4.58c-5,0-9.04-1.27-12.13-3.81-3.79-3.14-5.68-7.27-5.68-12.36Zm11.95-.03c0,2.77.56,4.82,1.68,6.15s2.53,1.99,4.23,1.99,3.13-.65,4.23-1.96,1.66-3.41,1.66-6.3c0-2.7-.56-4.7-1.67-6.02s-2.49-1.98-4.13-1.98c-1.74,0-3.17.67-4.31,2.01s-1.7,3.37-1.7,6.11Z"/><path class="cls-2" d="m407.55,100.71h11.95v30.18c0,3.85-.28,6.57-.83,8.17s-1.59,2.9-3.09,3.9-3.65,1.49-6.45,1.49c-2.3,0-5.17-.34-8.58-1.03l1.79-8.67c.96.2,1.66.29,2.11.29,1.02,0,1.79-.35,2.31-1.04s.79-2.08.79-4.15v-29.15Zm0-11.84h11.95v8.2h-11.95v-8.2Z"/><path class="cls-2" d="m461.6,119.22h-23.91c.21,1.91.73,3.34,1.55,4.28,1.15,1.35,2.66,2.02,4.51,2.02,1.17,0,2.29-.29,3.34-.88.64-.37,1.34-1.03,2.08-1.96l11.75,1.08c-1.8,3.12-3.96,5.37-6.5,6.72s-6.18,2.04-10.93,2.04c-4.12,0-7.36-.58-9.73-1.74s-4.32-3.01-5.87-5.54-2.33-5.5-2.33-8.92c0-4.86,1.56-8.8,4.67-11.81s7.42-4.51,12.91-4.51c4.45,0,7.97.67,10.55,2.02s4.54,3.3,5.89,5.86,2.02,5.89,2.02,9.99v1.35Zm-12.13-5.71c-.23-2.3-.85-3.96-1.86-4.95s-2.33-1.49-3.97-1.49c-1.89,0-3.41.75-4.54,2.26-.72.94-1.18,2.33-1.38,4.19h11.75Z"/><path class="cls-2" d="m467.08,88.87h12.19v22.17l8.91-10.33h14.68l-11.16,10.9,11.81,20.21h-13.43l-6.3-12.47-4.49,4.39v8.09h-12.19v-42.95Z"/><path class="cls-2" d="m521.49,88.87v11.84h6.56v8.73h-6.56v11.02c0,1.33.13,2.2.38,2.63.39.66,1.07.99,2.05.99.88,0,2.11-.25,3.69-.76l.88,8.23c-2.95.64-5.7.97-8.26.97-2.97,0-5.16-.38-6.56-1.14s-2.45-1.92-3.12-3.47-1.01-4.06-1.01-7.53v-10.94h-4.39v-8.73h4.39v-5.71l11.95-6.12Z"/><path class="cls-2" d="m568.27,119.22h-23.91c.21,1.91.73,3.34,1.55,4.28,1.15,1.35,2.66,2.02,4.51,2.02,1.17,0,2.29-.29,3.34-.88.64-.37,1.34-1.03,2.08-1.96l11.75,1.08c-1.8,3.12-3.96,5.37-6.5,6.72s-6.18,2.04-10.93,2.04c-4.12,0-7.36-.58-9.73-1.74s-4.32-3.01-5.87-5.54-2.33-5.5-2.33-8.92c0-4.86,1.56-8.8,4.67-11.81s7.42-4.51,12.91-4.51c4.45,0,7.97.67,10.55,2.02s4.54,3.3,5.89,5.86,2.02,5.89,2.02,9.99v1.35Zm-12.13-5.71c-.23-2.3-.85-3.96-1.86-4.95s-2.33-1.49-3.97-1.49c-1.89,0-3.41.75-4.54,2.26-.72.94-1.18,2.33-1.38,4.19h11.75Z"/><path class="cls-2" d="m573.87,100.71h11.16v5.1c1.07-2.21,2.18-3.73,3.33-4.56s2.55-1.25,4.23-1.25,3.68.55,5.77,1.64l-3.69,8.5c-1.41-.59-2.52-.88-3.34-.88-1.56,0-2.77.64-3.63,1.93-1.23,1.82-1.85,5.21-1.85,10.2v10.43h-11.98v-31.11Z"/><path class="cls-2" d="m616.17,143.74h-18.02v-9.26h7.12v-36.36h-7.12v-9.26h18.02v54.87Z"/></svg>