<?xml version="1.0" encoding="UTF-8"?><svg id="Layer_1" xmlns="http://www.w3.org/2000/svg" viewBox="0 0 306.61 86.65"><defs><style>.cls-1{fill:#fff;stroke-width:0px;}</style></defs><path class="cls-1" d="m1.84,35.82l3.25-3.82c2.25,2.14,5.26,3.58,8.18,3.58,3.53,0,5.47-1.6,5.47-4.05,0-2.58-2.03-3.41-4.88-4.62l-4.29-1.86c-3.09-1.29-6.35-3.73-6.35-8.32,0-5,4.42-8.85,10.54-8.85,3.67,0,7.22,1.52,9.68,4l-2.86,3.53c-2-1.7-4.13-2.7-6.82-2.7-2.98,0-4.92,1.39-4.92,3.69,0,2.47,2.39,3.38,4.99,4.45l4.23,1.78c3.73,1.56,6.35,3.92,6.35,8.47,0,5.09-4.22,9.33-11.27,9.33-4.24,0-8.33-1.67-11.31-4.6Z"/><path class="cls-1" d="m30.15,8.45h5.57v31.39h-5.57V8.45Z"/><path class="cls-1" d="m43.69,8.45h5.57v26.71h13.04v4.69h-18.61V8.45Z"/><path class="cls-1" d="m67.79,8.45h5.57v14.27h.15l11.18-14.27h6.18l-9.66,12.25,11.29,19.14h-6.14l-8.49-14.77-4.51,5.61v9.16h-5.57V8.45Z"/><path class="cls-1" d="m96.44,8.45h18.89v4.69h-13.33v8.05h11.29v4.69h-11.29v9.29h13.81v4.69h-19.37V8.45Z"/><path class="cls-1" d="m114.95,68.81l3.25-3.82c2.25,2.14,5.26,3.58,8.18,3.58,3.53,0,5.47-1.6,5.47-4.05,0-2.58-2.03-3.41-4.88-4.62l-4.29-1.86c-3.09-1.29-6.35-3.73-6.35-8.32,0-5,4.42-8.85,10.54-8.85,3.67,0,7.22,1.52,9.68,4l-2.86,3.53c-2-1.7-4.13-2.7-6.82-2.7-2.98,0-4.92,1.39-4.92,3.69,0,2.47,2.39,3.38,4.99,4.45l4.23,1.78c3.73,1.56,6.35,3.92,6.35,8.47,0,5.09-4.22,9.33-11.27,9.33-4.24,0-8.33-1.67-11.31-4.6Z"/><path class="cls-1" d="m149.4,41.44h6.53l10.23,31.39h-5.89l-4.78-16.71c-1-3.32-1.92-6.9-2.84-10.35h-.19c-.86,3.48-1.79,7.03-2.78,10.35l-4.82,16.71h-5.68l10.23-31.39Zm-4.19,18.52h14.79v4.37h-14.79v-4.37Z"/><path class="cls-1" d="m165.11,41.44h5.9l4.42,15.78c1.02,3.56,1.71,6.64,2.76,10.22h.19c1.06-3.57,1.78-6.65,2.76-10.22l4.36-15.78h5.68l-9.72,31.39h-6.61l-9.75-31.39Z"/><path class="cls-1" d="m200.38,41.44h6.53l10.23,31.39h-5.89l-4.78-16.71c-1-3.32-1.92-6.9-2.84-10.35h-.19c-.86,3.48-1.79,7.03-2.78,10.35l-4.82,16.71h-5.68l10.23-31.39Zm-4.19,18.52h14.79v4.37h-14.79v-4.37Z"/><path class="cls-1" d="m220.73,41.44h5.72l9.75,17.65,3.24,6.7h.19c-.27-3.25-.71-7.22-.71-10.71v-13.63h5.3v31.39h-5.72l-9.75-17.68-3.25-6.67h-.19c.27,3.32.71,7.1.71,10.6v13.75h-5.3v-31.39Z"/><path class="cls-1" d="m252.22,41.44h5.72l9.75,17.65,3.24,6.7h.19c-.27-3.25-.71-7.22-.71-10.71v-13.63h5.3v31.39h-5.72l-9.75-17.68-3.24-6.67h-.19c.27,3.32.71,7.1.71,10.6v13.75h-5.3v-31.39Z"/><path class="cls-1" d="m289.85,41.44h6.53l10.23,31.39h-5.89l-4.78-16.71c-1-3.32-1.92-6.9-2.84-10.35h-.19c-.86,3.48-1.79,7.03-2.78,10.35l-4.82,16.71h-5.68l10.23-31.39Zm-4.19,18.52h14.79v4.37h-14.79v-4.37Z"/></svg>